<?xml version="1.0" standalone="no"?>
<!DOCTYPE svg PUBLIC "-//W3C//DTD SVG 20010904//EN"
 "http://www.w3.org/TR/2001/REC-SVG-20010904/DTD/svg10.dtd">
<svg version="1.0" xmlns="http://www.w3.org/2000/svg"
 width="256.000000pt" height="133.000000pt" viewBox="0 0 256.000000 133.000000"
 preserveAspectRatio="xMidYMid meet">
<metadata>
Created by potrace 1.16, written by Peter Selinger 2001-2019
</metadata>
<g transform="translate(0.000000,133.000000) scale(0.100000,-0.100000)"
fill="#000000" stroke="none">
<path d="M20 1023 c0 -161 2 -293 4 -293 3 0 25 17 49 38 24 20 59 48 77 62
17 14 42 35 55 48 27 26 64 28 91 5 26 -24 134 -26 126 -3 -3 9 1 8 10 -4 8
-10 20 -16 26 -12 7 4 17 4 23 0 8 -4 7 -9 -2 -15 -14 -8 -11 -10 19 -9 4 0 7
22 7 48 l0 47 38 3 c20 2 37 -1 37 -6 0 -15 -28 -22 -34 -9 -2 7 -5 4 -5 -5
-1 -10 -6 -18 -11 -18 -6 0 -9 -20 -7 -47 l3 -46 54 -19 c58 -20 74 -19 35 2
-28 15 -33 30 -10 30 8 0 15 6 15 13 0 7 14 21 30 30 17 10 30 24 30 31 0 8 7
19 16 27 9 8 14 22 11 37 -2 13 1 25 7 27 26 9 146 14 146 7 0 -5 -14 -21 -30
-37 -25 -24 -29 -35 -25 -57 5 -21 3 -28 -9 -28 -9 0 -16 -7 -16 -15 0 -8 3
-15 8 -15 7 0 32 -47 32 -60 0 -4 -13 -5 -30 -2 -22 3 -30 0 -30 -11 0 -8 -7
-18 -16 -21 -9 -3 -14 -13 -11 -20 5 -11 -8 -16 -56 -20 -34 -3 -111 -10 -172
-16 -60 -6 -172 -14 -248 -19 -77 -5 -141 -11 -143 -13 -2 -2 15 -109 36 -238
22 -129 40 -243 40 -252 0 -29 -58 -24 -64 5 -3 12 -24 121 -46 242 -22 121
-44 234 -49 250 -6 19 -10 -95 -10 -317 l-1 -348 1260 0 1260 0 0 654 c0 514
-3 655 -12 658 -7 2 -38 4 -68 3 -30 0 -157 -1 -282 -3 -151 -1 -228 -6 -228
-13 0 -6 43 -10 123 -9 67 1 127 0 132 -1 6 -1 19 -2 30 -3 11 -1 20 -8 20
-16 0 -11 -12 -15 -45 -15 l-45 1 4 -78 c4 -108 0 -117 -43 -84 -20 15 -48 26
-65 26 -16 0 -42 5 -58 11 -15 7 -43 12 -61 12 -33 0 -34 1 -27 31 5 17 7 46
6 65 -1 19 4 38 10 42 7 4 9 14 6 23 -6 14 -54 16 -471 16 l-464 0 -4 -35 c-2
-21 1 -36 8 -39 7 -3 14 -41 19 -98 3 -51 9 -101 12 -111 4 -15 0 -17 -24 -11
-15 4 -44 8 -63 8 -34 1 -35 3 -41 46 -6 43 -6 44 -9 10 l-3 -35 -6 30 -6 30
-131 4 c-116 3 -136 1 -179 -18 -26 -11 -55 -21 -65 -21 -23 0 -42 -23 -35
-42 4 -9 17 -15 31 -15 32 0 35 -4 27 -32 -4 -16 -11 -21 -25 -18 -11 3 -21 0
-25 -9 -3 -8 -9 -14 -14 -14 -12 0 -11 28 1 32 7 2 7 15 0 37 -6 23 -6 39 0
47 8 8 6 13 -5 18 -11 4 -14 2 -9 -7 4 -6 -1 -5 -12 4 -34 29 -48 34 -41 16 4
-11 2 -14 -7 -11 -7 3 -20 -2 -29 -10 -9 -9 -19 -16 -23 -16 -5 0 -3 5 3 11 8
8 8 20 1 40 -11 31 -23 37 -32 17 -3 -7 -5 2 -3 19 3 26 1 30 -10 22 -19 -16
-17 6 3 25 9 9 11 16 4 16 -6 0 -8 5 -5 10 4 6 58 10 131 10 l124 0 0 46 0 45
-270 -3 -270 -2 0 -293z m1605 128 c25 -6 27 -8 11 -14 -15 -6 -16 -10 -6 -22
7 -8 9 -15 4 -15 -5 0 -1 -5 9 -11 22 -13 22 -41 0 -37 -9 2 -22 -7 -28 -19
-11 -21 -11 -21 -23 7 -14 31 -52 50 -105 53 -19 1 -34 4 -32 6 2 2 -3 10 -11
18 -20 20 -16 22 40 27 27 3 51 7 54 10 7 7 47 6 87 -3z m-271 -66 c3 -8 12
-15 21 -15 8 0 15 -9 15 -20 0 -26 5 -25 43 4 49 38 124 14 98 -31 -9 -16 -10
-16 -11 5 0 13 -6 22 -15 22 -8 0 -15 -8 -15 -18 0 -24 33 -62 54 -62 9 0 21
-9 28 -20 16 -25 28 -26 29 -2 0 13 2 14 6 2 2 -8 11 -29 19 -47 17 -37 17
-43 4 -43 -5 0 -10 9 -10 19 0 30 -11 31 -59 9 -36 -16 -42 -23 -37 -41 3 -12
6 -25 6 -29 0 -5 7 -8 15 -8 8 0 15 -9 15 -20 0 -11 6 -20 14 -20 11 0 9 -11
-10 -49 -27 -58 -43 -71 -37 -33 3 20 2 23 -5 12 -5 -8 -9 -33 -8 -55 l1 -40
40 3 c22 2 50 10 62 18 25 15 40 15 35 -1 -1 -5 4 -2 12 8 13 17 14 14 14 -29
0 -26 -4 -59 -9 -73 -6 -14 -12 -50 -14 -79 -1 -30 -8 -59 -14 -65 -6 -6 -11
-19 -11 -29 0 -26 -18 -22 -22 4 -3 20 -4 21 -20 5 -9 -9 -21 -17 -27 -17 -6
0 -11 -9 -11 -20 0 -11 -7 -20 -15 -20 -23 0 -31 -50 -12 -81 14 -26 14 -27
-3 -24 -10 2 -21 -2 -23 -9 -9 -24 -76 -18 -123 11 -53 33 -62 58 -44 127 10
37 10 51 1 54 -6 2 -11 8 -11 14 0 6 7 7 16 4 8 -3 39 5 68 19 29 14 64 26 77
26 21 1 21 2 4 6 -11 3 -28 12 -37 20 -9 8 -56 21 -105 28 -48 7 -78 13 -65
14 67 3 122 62 122 129 0 121 -146 174 -224 81 -38 -45 -37 -116 3 -161 22
-26 27 -40 24 -65 -3 -18 -9 -33 -14 -33 -5 0 -9 -7 -9 -15 0 -8 8 -15 18 -15
10 0 25 -12 33 -26 12 -23 11 -27 -5 -40 -17 -12 -17 -14 -3 -20 22 -8 21 -16
-3 -44 -11 -13 -23 -34 -26 -47 -9 -35 -24 -17 -25 30 -1 38 -2 35 -15 -28 -8
-38 -24 -90 -36 -115 -11 -25 -21 -49 -22 -55 -4 -20 -38 -77 -43 -72 -2 3 5
43 16 88 27 107 28 156 2 164 -61 19 -101 82 -76 118 9 13 15 44 15 83 0 41 4
64 13 67 22 8 3 15 -48 19 l-50 3 -7 -55 c-5 -30 -10 -66 -12 -80 -3 -14 -5
-29 -5 -34 -1 -6 -8 -1 -17 10 -15 18 -15 18 -9 -9 4 -19 2 -26 -5 -22 -5 3
-10 -1 -10 -9 0 -9 -6 -16 -12 -16 -10 0 -9 -3 1 -9 9 -6 2 -10 -23 -13 -28
-3 -36 0 -36 12 0 8 -4 53 -9 100 -16 149 -21 247 -11 225 5 -11 9 -39 9 -62
1 -43 31 -126 50 -137 6 -4 11 -18 11 -32 0 -40 14 -27 32 29 13 38 16 71 12
122 -7 86 10 166 43 196 12 13 23 18 23 12 0 -6 -3 -13 -7 -15 -5 -2 -5 -21
-2 -43 6 -36 6 -37 9 -10 2 17 4 35 4 40 4 28 48 105 61 105 8 0 15 -6 15 -12
1 -7 6 -4 13 7 7 13 19 19 32 17 17 -4 18 -2 6 12 -16 20 -22 14 62 65 79 48
75 47 107 34 l24 -10 -29 -14 c-24 -12 -29 -20 -27 -42 1 -15 -5 -39 -15 -54
-13 -19 -14 -25 -4 -18 11 6 13 4 8 -9 -4 -10 -1 -19 8 -23 17 -6 65 39 65 61
0 15 27 40 53 49 21 8 23 27 2 27 -8 0 -15 4 -15 9 0 20 13 41 25 41 9 0 12
10 10 28 -2 15 -4 30 -4 35 -2 13 -19 7 -23 -8 -2 -10 -7 -12 -18 -5 -13 8
-12 11 5 24 25 19 32 20 39 1z m644 -302 c-23 -43 -62 -97 -85 -121 -24 -23
-43 -47 -43 -53 0 -15 -39 -69 -50 -69 -24 0 -32 43 -19 108 11 62 16 70 73
125 34 31 71 60 84 63 12 4 22 14 23 23 0 9 3 11 6 4 3 -9 11 -6 26 8 38 36
32 -3 -15 -88z m52 -108 c0 -20 -32 -85 -42 -85 -4 0 -8 -7 -8 -15 0 -8 -7
-15 -16 -15 -8 0 -13 -3 -11 -7 3 -5 1 -30 -3 -58 -7 -42 -5 -54 11 -78 15
-20 17 -32 10 -46 -8 -15 -5 -24 17 -46 15 -15 39 -32 55 -37 17 -6 27 -17 27
-30 0 -15 -4 -18 -17 -13 -10 4 -27 10 -38 13 -11 3 -24 11 -28 19 -7 12 -12
12 -33 -2 -22 -14 -25 -14 -30 0 -8 19 -34 20 -34 0 0 -8 14 -31 32 -51 l32
-37 -41 22 c-23 11 -47 21 -52 21 -6 0 -26 15 -45 33 -18 18 -44 40 -57 49
l-24 17 62 58 c34 32 71 77 83 101 11 23 27 42 35 42 8 0 15 9 15 19 0 21 30
84 43 89 4 2 7 8 7 13 0 14 23 38 38 39 6 0 12 -7 12 -15z"/>
</g>
</svg>
